
        <svg xmlns="http://www.w3.org/2000/svg" xmlns:xlink="http://www.w3.org/1999/xlink" version="1.1" width="3215.3997408146342" height="913.2949010540502" viewBox="0 0 3215.3997408146342 913.2949010540502">
			
			<g transform="scale(10.769987040731722) translate(10, 10)">
				<defs id="SvgjsDefs1456"/><g id="SvgjsG1457" featureKey="nameLeftFeature-0" transform="matrix(2.0642203460306914,0,0,2.0642203460306914,4.921484818531731e-7,5.7522937947075885)" fill="#000"><path d="M4.96 8.94 c1.36 -1.22 2.72 -2 4.58 -2 c0.86 0.06 1.42 0.6 1.42 1.48 c0 0.14 -0.02 0.58 -0.24 0.58 c-0.36 0 -0.3 -0.76 -0.48 -0.96 c-0.24 -0.26 -0.62 -0.32 -0.96 -0.32 c-0.86 0 -1.64 0.86 -2.12 1.44 c-0.08 0.08 -0.38 0.46 -0.44 0.54 c-0.12 0.16 -0.52 0.72 -0.56 0.78 l-0.96 1.5 l-0.86 1.56 l-0.58 1.24 l-0.5 1.24 c-0.02 0.08 -0.22 0.68 -0.28 0.88 c-0.28 0.9 -0.46 1.86 -0.46 2.82 c0 0.66 0.12 1.6 0.96 1.6 s1.66 -0.78 2.24 -1.36 l0.72 -0.74 l0.92 -1.08 l2.42 -3.18 c0.04 -0.06 0.18 -0.06 0.24 -0.06 c0.16 0 0.22 0.1 0.22 0.24 c0 0.08 0 0.12 -0.04 0.18 l-2.04 2.74 l-1.24 1.46 l-0.82 0.86 c-0.04 0.04 -0.32 0.28 -0.38 0.34 c-0.58 0.52 -1.32 1.12 -2.14 1.2 c-2.12 0 -3.58 -0.88 -3.58 -3.18 c0 -0.7 0.12 -1.4 0.36 -2.06 l0.4 -1.16 l0.56 -1.32 l0.56 -1.14 l0.68 -1.16 l0.7 -1.04 c0.46 -0.7 1.08 -1.34 1.7 -1.92 z M13.956 10 l0.6 -1.22 l0.5 -0.88 c0.02 -0.06 0.3 -0.5 0.4 -0.62 c0.82 -1.2 2.3 -2.8 3.92 -2.8 c0.7 0 1.18 0.46 1.18 1.16 c0 1.44 -1.22 2.88 -2.2 3.86 l-1.78 1.62 l-1.54 1.24 c0 0.02 -0.02 0.02 -0.02 0.04 c-0.14 0.44 -0.28 0.96 -0.38 1.42 c-0.02 0.08 -0.1 0.48 -0.12 0.56 c0 0.04 -0.02 0.2 -0.04 0.3 l0.58 -0.94 c0.5 -0.8 1.42 -2 2.5 -2 c1.04 0 1.46 1.46 1.56 2.26 l0.16 1.36 c0.02 0.2 0.06 0.38 0.12 0.56 c0.02 0.08 0.06 0.26 0.16 0.26 c0.18 0 0.4 -0.2 0.5 -0.28 c0.04 -0.04 0.18 -0.16 0.2 -0.18 l0.54 -0.52 l1.06 -1.3 l1.46 -1.96 c0.04 -0.04 0.1 -0.12 0.16 -0.12 c0.14 0 0.32 0.06 0.32 0.26 c0 0.14 -0.16 0.34 -0.24 0.44 c-0.04 0.08 -0.24 0.34 -0.26 0.36 l-1.86 2.34 l-0.9 1 c-0.04 0.04 -0.34 0.36 -0.44 0.44 c-0.48 0.44 -1.12 1 -1.8 1 c-1 0 -1.22 -1.12 -1.22 -1.9 l0 -1.16 c0 -0.18 -0.04 -1.42 -0.28 -1.42 c-0.16 0 -0.42 0.36 -0.5 0.48 l-1.08 1.64 l-0.52 0.7 c-0.04 0.04 -0.26 0.32 -0.32 0.4 c-0.4 0.44 -0.94 1 -1.6 1 l-0.08 0 c-0.34 -0.28 -0.42 -1.06 -0.42 -1.44 c0 -0.42 0.06 -0.84 0.12 -1.24 c0.02 -0.08 0.08 -0.42 0.1 -0.48 l0.28 -0.98 l0.58 -1.74 z M15.576 10.74 l0 0.02 l1.84 -1.4 l0.78 -0.68 l0.54 -0.56 c0.04 -0.02 0.28 -0.3 0.38 -0.42 c0.4 -0.5 0.88 -1.26 0.88 -1.94 c0 -0.14 -0.04 -0.28 -0.2 -0.28 c-0.26 0 -0.52 0.22 -0.72 0.36 c-0.84 0.68 -1.56 1.48 -2.16 2.38 c-0.12 0.16 -0.44 0.68 -0.48 0.74 l-0.46 0.88 c-0.02 0.02 -0.2 0.42 -0.26 0.56 c-0.04 0.1 -0.14 0.34 -0.14 0.34 z M15.556 10.78 c0.02 0 0.02 -0.02 0 -0.02 l0 0.02 z M29.932000000000002 11.42 c0.12 -0.22 0.28 -0.64 0.6 -0.64 c0.14 0 0.26 0.08 0.4 0.16 c0.24 0.16 0.7 0.38 0.7 0.76 c0 0.14 -0.08 0.26 -0.14 0.36 l-0.72 1.52 l-0.74 1.84 l-0.28 0.86 l-0.2 0.72 c-0.04 0.2 -0.08 0.46 -0.08 0.7 c0 0.04 0 0.16 0.06 0.16 c0.18 0 0.38 -0.22 0.48 -0.32 l0.28 -0.28 c0.08 -0.1 0.36 -0.4 0.4 -0.44 l1.16 -1.4 l2.58 -3.48 c0.04 -0.04 0.08 -0.12 0.16 -0.12 c0.16 0 0.32 0.08 0.32 0.28 l0 0.04 l-0.56 0.82 l-2.44 3.26 l-0.94 1.08 c-0.04 0.02 -0.44 0.44 -0.58 0.58 c-0.26 0.26 -0.88 0.82 -1.28 0.82 c-0.96 0 -1.24 -0.84 -1.24 -1.66 c0 -0.74 0.2 -1.46 0.46 -2.16 c-0.02 0 -0.04 0.02 -0.04 0.02 c-0.06 0.04 -0.26 0.22 -0.3 0.26 l-0.88 0.76 c-0.06 0.04 -0.46 0.34 -0.58 0.42 c-0.38 0.28 -0.88 0.6 -1.38 0.6 c-0.7 0 -1.04 -0.56 -1.04 -1.2 c0 -0.52 0.18 -1.02 0.4 -1.48 c0.72 -1.56 2.42 -3.4 4.3 -3.4 c0.36 0 0.66 0.12 0.92 0.36 c0.04 0.02 0.18 0.2 0.2 0.2 z M25.632 15.84 c0 0.12 0.1 0.16 0.2 0.16 c0.2 0 0.4 -0.14 0.56 -0.24 c0.08 -0.06 0.36 -0.24 0.38 -0.26 l0.76 -0.6 l1.24 -1.18 l0.46 -0.98 c0.08 -0.16 0.14 -0.36 0.14 -0.54 c0 -0.14 -0.06 -0.2 -0.2 -0.2 c-0.24 0 -0.52 0.14 -0.74 0.26 c-1.1 0.6 -2.18 1.78 -2.64 2.96 c-0.08 0.18 -0.16 0.42 -0.16 0.62 z M28.332 14.879999999999999 l0 -0.02 l0 0.02 z M37.068000000000005 9.32 l1.48 -2.78 l0.14 -0.22 c0.44 0.18 1.36 0.4 1.36 1 c0 0.08 0 0.18 -0.06 0.26 l-0.76 1.46 l0 0.02 c0.16 0 0.32 -0.02 0.48 -0.02 c0.7 0 1.4 0.2 1.4 1 c0 0.48 -0.26 0.88 -0.56 1.24 l-0.06 0 c-0.14 0 -0.36 -0.08 -0.36 -0.26 s0.08 -0.36 0.08 -0.52 c0 -0.48 -0.38 -0.48 -0.74 -0.48 c-0.2 0.02 -0.72 0.08 -0.72 0.08 l-0.04 0 l-0.48 0.98 l-1.3 3 l-0.36 1.02 c-0.16 0.5 -0.32 1.06 -0.32 1.6 c0 0.26 0.04 0.62 0.36 0.66 c1 0 1.78 -0.64 2.46 -1.3 l0.44 -0.44 l0.74 -0.84 l1.64 -2.06 s0.1 -0.14 0.14 -0.2 c0.02 -0.04 0.02 -0.08 0.02 -0.1 l0.02 -0.02 c0.2 0 0.46 0.04 0.46 0.3 l0 0.04 l-1.32 1.76 l-1.56 1.78 l-0.76 0.74 c-0.04 0.06 -0.44 0.4 -0.58 0.5 c-0.5 0.4 -1.18 0.88 -1.86 0.88 c-1.38 0 -1.98 -0.92 -1.98 -2.22 c0 -0.6 0.1 -1.2 0.3 -1.76 l0.32 -0.92 l0.56 -1.34 l0.92 -1.86 c-0.84 -0.06 -1.76 -0.34 -1.76 -1.38 c0 -0.28 0.02 -1 0.42 -1 c0.12 0 0.28 0.08 0.28 0.22 c0 0.12 -0.04 0.24 -0.04 0.36 c0 0.76 0.72 0.84 1.32 0.84 c0.08 0 0.28 -0.02 0.28 -0.02 z"/></g><g id="SvgjsG1458" featureKey="inlineSymbolFeature-0" transform="matrix(0.06591394731891694,0,0,0.06591394731891694,107.96704302634055,-0.03295697365945847)" fill="#000"><g xmlns="http://www.w3.org/2000/svg"><path d="M534,247.1c11.2-11.2,17.4-26.1,17.4-42c0-32.8-26.7-59.4-59.4-59.4c-32.7,0-59.4,26.7-59.4,59.4c0,15.9,6.2,30.8,17.4,42   L652.8,450l-42,42L408,289.1c-21.5-21.5-34.8-51.3-34.8-84.1v0c0-65.6,53.2-118.8,118.8-118.8c65.6,0,118.8,53.2,118.8,118.8   c0,32.8-13.3,62.5-34.8,84L534,247.1z"/><path d="M534,247.1l8.1,8.1c13.4-13.3,20.8-31.3,20.8-50.2c0-39.1-31.8-70.9-70.9-70.9c-39.1,0-70.8,31.8-70.9,70.9v0   c0,18.9,7.4,36.8,20.8,50.2L636.6,450l-25.7,25.7L416.1,281c-19.5-19.5-31.4-46.3-31.4-75.9c0-3-1.2-6-3.4-8.1s-5.1-3.4-8.1-3.4   c-3,0-6,1.2-8.1,3.4s-3.4,5.1-3.4,8.1v0c0,3,1.2,6,3.4,8.1s5.1,3.4,8.1,3.4c3,0,6-1.2,8.1-3.4s3.4-5.1,3.4-8.1   c0.1-59.3,48.1-107.2,107.3-107.3c59.3,0.1,107.2,48.1,107.3,107.3c0,29.7-12,56.4-31.4,75.9l8.1,8.1l8.1-8.1l-42-42L534,247.1   l8.1,8.1L534,247.1l-8.1,8.1l42,42c2.1,2.1,5.1,3.4,8.1,3.4c3,0,6-1.2,8.1-3.4c23.6-23.6,38.2-56.2,38.2-92.2   c0-72-58.3-130.3-130.3-130.3c-72,0-130.3,58.3-130.3,130.3c0,3,1.2,6,3.4,8.1s5.1,3.4,8.1,3.4c3,0,6-1.2,8.1-3.4s3.4-5.1,3.4-8.1   v0c0-3-1.2-6-3.4-8.1s-5.1-3.4-8.1-3.4c-3,0-6,1.2-8.1,3.4s-3.4,5.1-3.4,8.1c0,35.9,14.6,68.6,38.2,92.2l202.9,202.8   c4.5,4.5,11.8,4.5,16.3,0l42-42c2.1-2.1,3.4-5.1,3.4-8.1c0-3-1.2-6-3.4-8.1L458.1,239c-9.1-9.1-14-21-14.1-33.9v0   c0-26.4,21.5-47.9,47.9-47.9c26.4,0,47.9,21.5,47.9,47.9c0,12.9-4.9,24.8-14,33.9c-2.2,2.2-3.4,5.1-3.4,8.1c0,3.1,1.2,6,3.4,8.1   L534,247.1z"/><path d="M736.8,534c11.2,11.2,26.1,17.4,42,17.4c32.7,0,59.4-26.7,59.4-59.4c0-32.8-26.6-59.4-59.3-59.4v0   c-15.9,0-30.8,6.2-42,17.4L534,652.8l-42-42L694.9,408c21.5-21.5,51.2-34.8,84-34.8l0,0c65.6,0,118.8,53.2,118.8,118.9   s-53.2,118.8-118.8,118.8c-32.8,0-62.5-13.3-84-34.8L736.8,534z"/><path d="M736.8,534l-8.1,8.1c13.3,13.4,31.3,20.8,50.2,20.8c39.1,0,70.9-31.8,70.9-70.9c0-39.1-31.7-70.9-70.8-70.9   c-3.1,0-6,1.2-8.1,3.4c-2.2,2.2-3.4,5.1-3.4,8.1v0h11.5v-11.5c-18.9,0-36.8,7.4-50.2,20.7l0,0L534,636.6l-25.7-25.7L703,416.1   c19.5-19.4,46.2-31.4,75.9-31.4c5.3,0,10-3.7,11.2-8.9c1.2-5.2-1.3-10.6-6.1-12.9l0,0l-5.1,10.3v11.5   c59.3,0.1,107.2,48.1,107.3,107.4c-0.1,59.3-48.1,107.2-107.3,107.3c-29.7,0-56.4-12-75.9-31.4l-8.1,8.1l8.1,8.1l42-42L736.8,534   l-8.1,8.1L736.8,534l-8.1-8.1l-42,42c-4.5,4.5-4.5,11.8,0,16.3c23.5,23.6,56.2,38.2,92.2,38.2c72,0,130.3-58.3,130.3-130.3   c0-72-58.3-130.4-130.3-130.4c-5.3,0-10,3.7-11.2,8.9c-1.2,5.2,1.3,10.6,6.1,12.9l0,0l5.1-10.3v-11.5c-36,0-68.6,14.6-92.2,38.2   L483.9,602.7c-2.1,2.1-3.4,5.1-3.4,8.1c0,3,1.2,6,3.4,8.1l42,42c4.5,4.5,11.8,4.5,16.3,0L745,458.1l0,0c9.2-9.1,21-14,33.9-14   c3,0,6-1.2,8.1-3.4s3.4-5.1,3.4-8.1v0h-11.5l0,11.5c26.4,0,47.9,21.5,47.8,47.9c0,26.4-21.5,47.9-47.9,47.9   c-12.9,0-24.8-4.9-33.9-14c-2.2-2.2-5.1-3.4-8.1-3.4c-3.1,0-6,1.2-8.1,3.4L736.8,534z"/><path d="M247.1,450c-11.3-11.2-26.1-17.4-42-17.4c-32.8,0-59.4,26.7-59.4,59.4c0,32.8,26.6,59.4,59.4,59.5v0   c15.9,0,30.8-6.2,42-17.4L450,331.2l42,42L289.1,576c-21.5,21.5-51.3,34.8-84.1,34.8l0,0c-65.7,0-118.8-53.2-118.8-118.9   c0-65.6,53.2-118.8,118.8-118.8c32.8,0,62.5,13.3,84,34.8L247.1,450z"/><path d="M247.1,450l8.1-8.1c-13.3-13.4-31.3-20.8-50.2-20.8c-39.1,0-70.9,31.8-70.9,70.9c0,39.1,31.7,70.9,70.9,71   c3.1,0,6-1.2,8.1-3.4c2.2-2.2,3.4-5.1,3.4-8.1v0h-11.5v11.5c18.9,0,36.8-7.4,50.2-20.8l0,0L450,347.4l25.7,25.7L281,567.9l0,0   c-19.5,19.4-46.3,31.4-75.9,31.5c-5.1,0-9.5,3.3-11,8.1c-1.5,4.8,0.4,10.1,4.6,12.9l0,0l6.4-9.5v-11.5   C145.8,599.2,97.9,551.3,97.8,492c0.1-59.3,48-107.2,107.3-107.3c29.7,0,56.4,12,75.9,31.4l8.1-8.1l-8.1-8.1l-42,42L247.1,450   l8.1-8.1L247.1,450l8.1,8.1l42-42c2.2-2.2,3.4-5.1,3.4-8.1c0-3.1-1.2-6-3.4-8.1c-23.6-23.5-56.2-38.2-92.2-38.1   c-72,0-130.3,58.3-130.3,130.3c0,72,58.3,130.4,130.3,130.4c5.1,0,9.5-3.3,11-8.1c1.5-4.8-0.4-10.1-4.6-12.9l0,0l-6.4,9.5v11.5   c35.9,0,68.6-14.6,92.2-38.2l0,0l202.9-202.8c4.5-4.5,4.5-11.8,0-16.3l-42-42c-4.5-4.5-11.8-4.5-16.3,0L239,525.9l0,0   c-9.2,9.1-21,14-33.9,14.1c-3,0-6,1.2-8.1,3.4s-3.4,5.1-3.4,8.1v0h11.5l0-11.5c-26.4,0-47.9-21.5-47.9-48   c0-26.4,21.5-47.8,47.9-47.9c12.9,0,24.7,4.9,33.9,14c4.5,4.5,11.8,4.5,16.3,0L247.1,450z"/><path d="M778.9,298.9h-11.5v0L778.9,298.9v-11.5c-49.3,0-96,17.5-133,49.3l7.5,8.7l8.1-8.1l-14.7-14.7l-8.1,8.1l8.7,7.5   c31.8-37,49.2-83.8,49.2-133.1l0,0C696.6,92.3,604.9,0.5,492,0.5c-112.9,0-204.6,91.8-204.6,204.6c0,49.3,17.6,96,49.3,133l8.7-7.5   l-8.1-8.1l-14.7,14.7l8.1,8.1l7.5-8.7c-37-31.8-83.9-49.2-133.2-49.2C92.3,287.4,0.5,379.2,0.5,492c0,112.9,91.8,204.6,204.6,204.7   c3,0,6-1.2,8.1-3.4s3.4-5.1,3.4-8.1v0h-11.5v11.5c49.3,0,96-17.5,133-49.3l-7.5-8.7l-8.1,8.1l14.7,14.7l8.1-8.1l-8.7-7.5   c-31.8,37-49.2,83.9-49.2,133.1c0,112.8,91.8,204.6,204.6,204.6c112.9,0,204.6-91.8,204.6-204.6c0-3-1.2-6-3.4-8.1   s-5.1-3.4-8.1-3.4h0v11.5h11.5c0-49.3-17.5-96-49.3-133l-8.7,7.5l8.1,8.1l14.7-14.7l-8.1-8.1l-7.5,8.7   c37,31.9,83.9,49.2,133.2,49.2l0,0c112.8,0,204.6-91.8,204.6-204.6c0-112.9-91.8-204.6-204.6-204.7c-3,0-6,1.2-8.1,3.4   s-3.4,5.1-3.4,8.1H778.9v11.5C879,310.6,960.3,391.9,960.5,492c-0.2,100.1-81.5,181.4-181.6,181.6l0,0   c-43.9,0-85.2-15.4-118.2-43.7c-4.6-3.9-11.4-3.7-15.6,0.6l-14.7,14.7c-4.2,4.2-4.5,11.1-0.6,15.6c28.3,33,43.8,74.2,43.8,118   c0,3,1.2,6,3.4,8.1s5.1,3.4,8.1,3.4h0v-11.5h-11.5C673.4,879,592.1,960.3,492,960.5c-100.1-0.2-181.5-81.5-181.6-181.6   c0-43.9,15.4-85.2,43.7-118.2c3.9-4.6,3.7-11.4-0.6-15.6l-14.7-14.7c-4.2-4.2-11.1-4.5-15.6-0.6c-33,28.3-74.2,43.8-118,43.8   c-3,0-6,1.2-8.1,3.4s-3.4,5.1-3.4,8.1v0h11.5v-11.5C105,673.4,23.7,592.1,23.5,492c0.2-100.1,81.5-181.4,181.6-181.6   c43.9,0,85.2,15.4,118.2,43.7c4.6,3.9,11.4,3.6,15.6-0.6l14.7-14.7c4.2-4.2,4.5-11.1,0.6-15.6c-28.3-32.9-43.8-74.2-43.8-118   C310.6,105,391.9,23.7,492,23.5c100.1,0.2,181.4,81.5,181.6,181.6l0,0c0,43.9-15.4,85.3-43.6,118.2c-3.9,4.6-3.7,11.4,0.6,15.6   l14.7,14.7c4.2,4.2,11.1,4.5,15.6,0.6c33-28.3,74.2-43.8,118-43.8c3,0,6-1.2,8.1-3.4s3.4-5.1,3.4-8.1v0H778.9v11.5V298.9z"/><path d="M450,736.8c-11.2,11.2-17.4,26.1-17.4,42c0,32.7,26.7,59.4,59.4,59.4c32.7,0,59.4-26.6,59.4-59.4h0   c0-15.9-6.2-30.8-17.4-42L331.1,534l42-42L576,694.9c21.5,21.5,34.8,51.2,34.8,84l0,0c0,65.6-53.2,118.8-118.8,118.8   c-65.7,0-118.8-53.2-118.8-118.8c0-32.8,13.3-62.5,34.8-84L450,736.8z"/><path d="M450,736.8l-8.1-8.1c-13.3,13.3-20.8,31.3-20.7,50.1c0,39.1,31.8,70.9,70.9,70.9c39.1,0,70.9-31.7,70.9-70.9   c0-3.1-1.2-6-3.4-8.1c-2.2-2.2-5.1-3.4-8.1-3.4h0v11.5h11.5c0-18.9-7.4-36.8-20.7-50.2l0,0L347.4,534l25.7-25.8L567.8,703   c19.5,19.5,31.5,46.2,31.5,75.9c0,5.4,3.7,10,8.9,11.2c5.2,1.2,10.6-1.4,12.9-6.2l0,0l-10.4-5h-11.5   c-0.1,59.3-48.1,107.2-107.3,107.3c-59.3-0.1-107.2-48.1-107.3-107.3c0-29.7,12-56.4,31.4-75.9l-8.1-8.1l-8.1,8.1l42,42L450,736.8   l-8.1-8.1L450,736.8l8.1-8.1l-42-42c-4.5-4.5-11.8-4.5-16.3,0c-23.6,23.5-38.2,56.2-38.2,92.2c0,72,58.3,130.3,130.3,130.3   c72,0,130.3-58.3,130.3-130.3c0-5.4-3.7-10-8.9-11.2c-5.2-1.2-10.6,1.4-12.9,6.2l0,0l10.4,5h11.5c0-36-14.6-68.6-38.2-92.2   L381.3,483.8c-2.2-2.2-5.1-3.4-8.1-3.4c-3.1,0-6,1.2-8.1,3.4l-42,42c-4.5,4.5-4.5,11.8,0,16.3L525.9,745l0,0   c9.1,9.2,14,21.1,14.1,33.9c0,3,1.2,6,3.4,8.1s5.1,3.4,8.1,3.4h0v-11.5l-11.5,0c0,26.4-21.5,47.8-47.9,47.9   c-26.4,0-47.9-21.5-47.9-47.9c0-12.9,4.9-24.8,14-33.9c4.5-4.5,4.5-11.8,0-16.3L450,736.8z"/><path d="M491.9,610.8l8.1-8.1L389.3,492l102.6-102.5L594.5,492L483.8,602.7L491.9,610.8l8.1-8.1L491.9,610.8l8.1,8.1l118.8-118.8   c2.1-2.1,3.4-5.1,3.4-8.1c0-3-1.2-6-3.4-8.1L500,365c-4.5-4.5-11.8-4.5-16.3,0L364.9,483.8c-4.5,4.5-4.5,11.8,0,16.3L483.8,619   c2.1,2.1,5.1,3.4,8.1,3.4c3,0,6-1.2,8.1-3.4L491.9,610.8z"/></g></g><g id="SvgjsG1459" featureKey="nameRightFeature-0" transform="matrix(2.3280681095132327,0,0,2.3280681095132327,177.08533647427984,0.6125394828475983)" fill="#000"><path d="M11.756 14.26 l1.24 -3.22 l2.22 -4.86 c0.3 0.16 1.08 0.6 1.08 1 c0 0.06 -0.02 0.08 -0.04 0.12 c-0.04 0.12 -0.18 0.38 -0.18 0.38 l-2.6 6.46 l0 0.02 c0.56 -0.16 0.96 -0.64 1.32 -1.06 c0.04 -0.06 0.08 -0.06 0.16 -0.06 l0.06 0 c0.12 0.04 0.2 0.14 0.2 0.26 c0 0 0 0.04 -0.02 0.06 c-0.44 0.66 -1.14 1.16 -1.94 1.4 l-0.1 0.3 l-0.34 1.3 l-0.22 0.98 l-0.12 0.92 c-0.02 0.08 -0.04 0.44 -0.04 0.54 l0 0.28 c0 0.7 0.08 1.92 0.94 2.16 c0.2 0.04 0.38 0.06 0.58 0.06 l-0.08 0.48 l-0.02 0.02 c-1.86 0 -2.98 -0.5 -2.98 -2.56 c0 -0.46 0.04 -0.92 0.12 -1.36 l0.2 -1.32 l0.4 -1.8 l-0.32 -0.06 l-1.56 -0.42 c-0.06 0.08 -0.2 0.42 -0.22 0.5 c-0.1 0.26 -0.36 1.02 -0.38 1.08 l-0.26 0.9 l-0.4 1.74 c-0.02 0.1 -0.62 0.18 -0.68 0.18 c-0.34 0 -0.76 -0.16 -0.9 -0.48 c-0.02 -0.02 -0.04 -0.04 -0.04 -0.06 l0 -0.08 c0.04 -0.18 0.16 -0.64 0.16 -0.64 l0.28 -0.92 l3.4 -9.16 c0.04 -0.1 0.06 -0.24 0.06 -0.36 c0 -0.2 -0.02 -0.4 -0.04 -0.62 c0.9 0 1.34 0.78 1.34 1.6 c0 0.52 -0.14 1 -0.34 1.48 l-1.8 4.34 z M17.132 15.58 c0 -2.24 2.24 -4.8 4.54 -4.8 c0.58 0 1.2 0.24 1.2 0.92 c0 1.4 -2.14 2.22 -3.38 2.36 c-0.1 0.36 -0.18 0.74 -0.18 1.14 c0 0.56 0.18 1.3 0.88 1.3 c0.6 0 1.22 -0.46 1.66 -0.82 c0.08 -0.08 0.38 -0.34 0.4 -0.36 l0.76 -0.76 l1.06 -1.14 l1.2 -1.52 c0.02 -0.02 0.06 -0.06 0.1 -0.08 c0.12 0 0.36 0.04 0.36 0.22 l-0.06 0.18 l-0.78 1.02 l-1.14 1.34 l-1.04 1.06 c-0.04 0.06 -0.38 0.34 -0.48 0.44 c-0.84 0.7 -1.84 1.36 -2.98 1.36 c-1.28 0 -2.12 -0.54 -2.12 -1.86 z M19.412000000000003 13.379999999999999 l0 0.02 c0.08 -0.02 0.44 -0.1 0.52 -0.12 c0.08 -0.04 0.4 -0.12 0.46 -0.14 c0.08 -0.04 0.38 -0.16 0.46 -0.18 c0.42 -0.18 1.22 -0.64 1.22 -1.2 c0 -0.2 -0.12 -0.34 -0.34 -0.34 c-0.84 0 -1.82 0.7 -2.16 1.44 c-0.06 0.16 -0.16 0.36 -0.16 0.52 z M26.068 14.02 l0.02 -0.18 c0.22 -1.66 1.1 -2.86 2.6 -3.54 c0.92 0.48 1.96 0.88 3.02 0.88 c0.22 0 0.44 -0.04 0.66 -0.04 l0 0.02 c-0.06 0.04 -0.26 0.3 -0.3 0.36 c-0.06 0.06 -0.2 0.26 -0.22 0.28 l-0.48 0.76 l-1.26 2.36 l-0.36 0.82 l-0.44 1.16 c-0.06 0.14 -0.08 0.3 -0.08 0.46 c0 0.14 0.02 0.24 0.18 0.24 c0.3 0 0.68 -0.3 0.88 -0.48 c0.08 -0.04 0.36 -0.3 0.42 -0.36 c0.12 -0.1 0.64 -0.6 0.74 -0.72 c0.18 -0.18 0.74 -0.8 0.82 -0.88 l2.06 -2.52 l0 -0.04 l0.02 -0.06 l0.08 0 c0.08 0 0.16 0 0.24 0.02 c0.04 0.04 0.12 0.12 0.12 0.18 l0 0.2 l-0.06 0 l-0.9 1.16 l-1.64 1.92 l-0.9 0.92 c-0.02 0.02 -0.24 0.22 -0.3 0.28 c-0.62 0.52 -1.54 1.32 -2.42 1.32 c-0.92 0 -1.18 -0.82 -1.18 -1.6 c0 -0.62 0.2 -1.22 0.42 -1.78 c0.06 -0.12 0.3 -0.64 0.36 -0.74 c0.06 -0.14 0.32 -0.6 0.36 -0.68 l1 -1.56 l0 -0.02 s-0.08 -0.04 -0.12 -0.08 c-0.26 -0.18 -0.58 -0.34 -0.92 -0.34 c-1 0 -1.74 1.24 -2.02 2.04 l-0.14 0.38 c-0.1 0 -0.2 -0.06 -0.26 -0.14 z M34.984 15.58 c0 -2.24 2.24 -4.8 4.54 -4.8 c0.58 0 1.2 0.24 1.2 0.92 c0 1.4 -2.14 2.22 -3.38 2.36 c-0.1 0.36 -0.18 0.74 -0.18 1.14 c0 0.56 0.18 1.3 0.88 1.3 c0.6 0 1.22 -0.46 1.66 -0.82 c0.08 -0.08 0.38 -0.34 0.4 -0.36 l0.76 -0.76 l1.06 -1.14 l1.2 -1.52 c0.02 -0.02 0.06 -0.06 0.1 -0.08 c0.12 0 0.36 0.04 0.36 0.22 l-0.06 0.18 l-0.78 1.02 l-1.14 1.34 l-1.04 1.06 c-0.04 0.06 -0.38 0.34 -0.48 0.44 c-0.84 0.7 -1.84 1.36 -2.98 1.36 c-1.28 0 -2.12 -0.54 -2.12 -1.86 z M37.264 13.379999999999999 l0 0.02 c0.08 -0.02 0.44 -0.1 0.52 -0.12 c0.08 -0.04 0.4 -0.12 0.46 -0.14 c0.08 -0.04 0.38 -0.16 0.46 -0.18 c0.42 -0.18 1.22 -0.64 1.22 -1.2 c0 -0.2 -0.12 -0.34 -0.34 -0.34 c-0.84 0 -1.82 0.7 -2.16 1.44 c-0.06 0.16 -0.16 0.36 -0.16 0.52 z"/></g>
			</g>
		</svg>
	